<svg width="60" height="61" viewBox="0 0 60 61" fill="none" xmlns="http://www.w3.org/2000/svg">
<path fill-rule="evenodd" clip-rule="evenodd" d="M11.1732 0.5H48.8269V4.22441H60V17.4646C60 20.9761 58.605 24.3438 56.1222 26.8269C54.0975 28.8513 51.485 30.1525 48.6859 30.564C48.2744 33.3631 46.9734 35.9756 44.9487 38C42.5141 40.4347 39.2287 41.8234 35.7916 41.8766V47.2597C35.7916 47.6994 35.9659 48.1209 36.2769 48.4316C36.5878 48.7425 37.0094 48.9172 37.4487 48.9172C39.4787 48.9172 41.4253 49.7234 42.8606 51.1587C44.2959 52.5941 45.1025 54.5409 45.1025 56.5706V60.5H14.8976V56.5706C14.8976 54.5409 15.704 52.5941 17.1393 51.1587C18.5746 49.7234 20.5213 48.9172 22.5512 48.9172C22.9908 48.9172 23.4123 48.7425 23.7231 48.4316C24.0339 48.1209 24.2086 47.6994 24.2086 47.2597V41.8766C20.7712 41.8234 17.4858 40.4347 15.0512 38C13.0267 35.9756 11.7256 33.3631 11.314 30.564C8.51491 30.1525 5.90241 28.8513 3.87797 26.8269C1.39493 24.3438 0 20.9761 0 17.4646V4.22441H11.1732V0.5ZM11.1732 8.35847H4.13406V17.4646C4.13406 19.8797 5.09347 22.1959 6.80119 23.9037C8.01287 25.1153 9.53087 25.9503 11.1732 26.3331V8.35847ZM48.8269 26.3331V8.35847H55.8659V17.4646C55.8659 19.8797 54.9066 22.1959 53.1987 23.9037C51.9872 25.1153 50.4691 25.9503 48.8269 26.3331ZM29.9749 10.5L32.3309 18.1316H40L33.7844 22.8684L36.2406 30.5L30.025 25.7632L23.8096 30.5L26.2156 22.8158L20 18.079H27.6692L29.9749 10.5Z" fill="url(#paint0_linear_541_2049)"/>
<defs>
<linearGradient id="paint0_linear_541_2049" x1="48.5" y1="3.5" x2="15.5" y2="59.5" gradientUnits="userSpaceOnUse">
<stop stop-color="#F06A9B"/>
<stop offset="0.5" stop-color="#D082EA"/>
<stop offset="1" stop-color="#2F7ED9"/>
</linearGradient>
</defs>
</svg>
