<svg width="422" height="60" viewBox="0 0 422 60" fill="none" xmlns="http://www.w3.org/2000/svg">
<g clip-path="url(#clip0_311_2140)">
<path fill-rule="evenodd" clip-rule="evenodd" d="M11.6732 0H49.3269V3.72441H60.5V16.9646C60.5 20.4761 59.105 23.8438 56.6222 26.3269C54.5975 28.3513 51.985 29.6525 49.1859 30.064C48.7744 32.8631 47.4734 35.4756 45.4487 37.5C43.0141 39.9347 39.7287 41.3234 36.2916 41.3766V46.7597C36.2916 47.1994 36.4659 47.6209 36.7769 47.9316C37.0878 48.2425 37.5094 48.4172 37.9487 48.4172C39.9787 48.4172 41.9253 49.2234 43.3606 50.6587C44.7959 52.0941 45.6025 54.0409 45.6025 56.0706V60H15.3976V56.0706C15.3976 54.0409 16.204 52.0941 17.6393 50.6587C19.0746 49.2234 21.0213 48.4172 23.0512 48.4172C23.4908 48.4172 23.9123 48.2425 24.2231 47.9316C24.5339 47.6209 24.7086 47.1994 24.7086 46.7597V41.3766C21.2712 41.3234 17.9858 39.9347 15.5512 37.5C13.5267 35.4756 12.2256 32.8631 11.814 30.064C9.01491 29.6525 6.40241 28.3513 4.37797 26.3269C1.89493 23.8438 0.5 20.4761 0.5 16.9646V3.72441H11.6732V0ZM11.6732 7.85847H4.63406V16.9646C4.63406 19.3797 5.59347 21.6959 7.30119 23.4037C8.51287 24.6153 10.0309 25.4503 11.6732 25.8331V7.85847ZM49.3269 25.8331V7.85847H56.3659V16.9646C56.3659 19.3797 55.4066 21.6959 53.6987 23.4037C52.4872 24.6153 50.9691 25.4503 49.3269 25.8331ZM30.4749 10L32.8309 17.6316H40.5L34.2844 22.3684L36.7406 30L30.525 25.2632L24.3096 30L26.7156 22.3158L20.5 17.579H28.1692L30.4749 10Z" fill="url(#paint0_linear_311_2140)"/>
</g>
<path d="M88.012 32.36H89.104C89.3653 34.1333 90.0747 35.5333 91.232 36.56C92.3893 37.568 93.8173 38.072 95.516 38.072C96.2067 38.072 96.8413 37.988 97.42 37.82C97.9987 37.652 98.4933 37.4187 98.904 37.12C99.3147 36.8027 99.632 36.4387 99.856 36.028C100.08 35.5987 100.192 35.1227 100.192 34.6C100.192 34.152 100.117 33.7693 99.968 33.452C99.8373 33.116 99.576 32.7987 99.184 32.5C98.792 32.1827 98.2507 31.8653 97.56 31.548C96.888 31.2307 96.0107 30.8667 94.928 30.456C92.744 29.616 91.1293 28.6453 90.084 27.544C89.0387 26.424 88.516 25.108 88.516 23.596C88.516 22.7187 88.684 21.916 89.02 21.188C89.356 20.46 89.8227 19.8347 90.42 19.312C91.036 18.7893 91.764 18.388 92.604 18.108C93.4627 17.8093 94.4053 17.66 95.432 17.66C96.384 17.66 97.28 17.8093 98.12 18.108C98.96 18.4067 99.7907 18.8547 100.612 19.452L101.116 18.052H101.788L102.096 24.1H101.004C100.556 22.5693 99.856 21.4027 98.904 20.6C97.952 19.7787 96.8507 19.368 95.6 19.368C94.4427 19.368 93.5 19.6573 92.772 20.236C92.0627 20.796 91.708 21.524 91.708 22.42C91.708 22.812 91.7733 23.1667 91.904 23.484C92.0347 23.7827 92.2773 24.072 92.632 24.352C92.9867 24.632 93.472 24.9213 94.088 25.22C94.704 25.5 95.4973 25.8173 96.468 26.172C97.7747 26.676 98.8853 27.1893 99.8 27.712C100.733 28.216 101.489 28.7667 102.068 29.364C102.665 29.9427 103.104 30.5587 103.384 31.212C103.664 31.8653 103.804 32.584 103.804 33.368C103.804 34.32 103.599 35.188 103.188 35.972C102.777 36.756 102.199 37.428 101.452 37.988C100.724 38.548 99.8467 38.9867 98.82 39.304C97.812 39.6213 96.692 39.78 95.46 39.78C94.34 39.78 93.332 39.6307 92.436 39.332C91.54 39.0147 90.616 38.5107 89.664 37.82L89.104 39.5H88.432L88.012 32.36ZM105.602 26.2V24.94C106.722 24.6227 107.656 24.1467 108.402 23.512C109.168 22.8587 109.737 22.112 110.11 21.272H111.538V24.66H114.758V26.2H111.538V34.796C111.538 35.9533 111.66 36.7747 111.902 37.26C112.164 37.7453 112.593 37.988 113.19 37.988C113.918 37.988 114.469 37.652 114.842 36.98L115.43 37.792C114.908 39.1173 113.676 39.78 111.734 39.78C110.446 39.78 109.438 39.4813 108.71 38.884C108.001 38.2867 107.646 37.4467 107.646 36.364V26.2H105.602ZM125.226 31.52C123.658 32.2293 122.472 32.892 121.67 33.508C120.886 34.1053 120.494 34.7307 120.494 35.384C120.494 35.9253 120.643 36.3547 120.942 36.672C121.24 36.9893 121.614 37.148 122.062 37.148C122.51 37.148 122.93 37.0733 123.322 36.924C123.714 36.756 124.05 36.5413 124.33 36.28C124.61 36.0187 124.824 35.7107 124.974 35.356C125.142 34.9827 125.226 34.5907 125.226 34.18V31.52ZM125.226 30.036V28.86C125.226 27.7773 125.03 26.9933 124.638 26.508C124.264 26.004 123.676 25.752 122.874 25.752C122.332 25.752 121.922 25.9013 121.642 26.2C121.362 26.48 121.1 26.956 120.858 27.628C120.69 28.0947 120.447 28.4587 120.13 28.72C119.831 28.9813 119.411 29.112 118.87 29.112C118.347 29.112 117.946 28.9533 117.666 28.636C117.386 28.3187 117.246 27.8707 117.246 27.292C117.246 26.396 117.731 25.6867 118.702 25.164C119.691 24.6413 121.175 24.38 123.154 24.38C125.244 24.38 126.738 24.7627 127.634 25.528C128.53 26.2747 128.978 27.5347 128.978 29.308V35.44C128.978 37.0267 129.295 37.82 129.93 37.82C130.284 37.82 130.611 37.6987 130.91 37.456L131.33 38.268C131.068 38.7347 130.658 39.108 130.098 39.388C129.556 39.6493 128.94 39.78 128.25 39.78C127.391 39.78 126.738 39.5187 126.29 38.996C125.842 38.4733 125.618 37.736 125.618 36.784H125.478C124.936 37.7547 124.236 38.492 123.378 38.996C122.519 39.5 121.539 39.752 120.438 39.752C119.262 39.752 118.319 39.4253 117.61 38.772C116.9 38.1 116.546 37.232 116.546 36.168C116.546 35.3467 116.91 34.5813 117.638 33.872C118.366 33.144 119.579 32.4347 121.278 31.744L125.226 30.036ZM138.896 35.16C138.896 35.888 138.924 36.4667 138.98 36.896C139.055 37.3067 139.195 37.624 139.4 37.848C139.605 38.072 139.904 38.2213 140.296 38.296C140.688 38.352 141.211 38.38 141.864 38.38V39.5H132.512V38.38C133.072 38.3427 133.52 38.2867 133.856 38.212C134.192 38.1373 134.444 37.988 134.612 37.764C134.78 37.54 134.883 37.2227 134.92 36.812C134.976 36.3827 135.004 35.8133 135.004 35.104V31.688C135.004 30.5307 134.976 29.6067 134.92 28.916C134.864 28.2253 134.743 27.6933 134.556 27.32C134.369 26.9467 134.099 26.704 133.744 26.592C133.408 26.4613 132.96 26.396 132.4 26.396V25.416L138 24.38L138.448 27.6H138.56C139.064 26.6107 139.727 25.8267 140.548 25.248C141.369 24.6693 142.237 24.38 143.152 24.38C143.861 24.38 144.44 24.5573 144.888 24.912C145.336 25.2667 145.56 25.7147 145.56 26.256C145.56 26.8533 145.383 27.3573 145.028 27.768C144.692 28.1787 144.225 28.384 143.628 28.384C143.348 28.384 143.096 28.328 142.872 28.216C142.648 28.104 142.443 27.9827 142.256 27.852C142.088 27.7027 141.911 27.572 141.724 27.46C141.556 27.3293 141.379 27.264 141.192 27.264C140.837 27.264 140.501 27.4973 140.184 27.964C139.867 28.4307 139.605 29.056 139.4 29.84C139.251 30.4 139.129 31.0347 139.036 31.744C138.943 32.4347 138.896 33.1253 138.896 33.816V35.16ZM163.567 39.5H153.571V38.38C154.205 38.3613 154.709 38.3053 155.083 38.212C155.475 38.1 155.773 37.904 155.979 37.624C156.184 37.344 156.324 36.952 156.399 36.448C156.473 35.9253 156.511 35.2253 156.511 34.348V23.092C156.511 22.308 156.473 21.664 156.399 21.16C156.343 20.6373 156.221 20.2267 156.035 19.928C155.848 19.6293 155.577 19.424 155.223 19.312C154.887 19.1813 154.429 19.0973 153.851 19.06V17.94H163.287V19.06C162.708 19.0973 162.241 19.1813 161.887 19.312C161.551 19.424 161.289 19.6293 161.103 19.928C160.916 20.2267 160.785 20.6373 160.711 21.16C160.655 21.664 160.627 22.308 160.627 23.092V34.348C160.627 35.2253 160.655 35.9253 160.711 36.448C160.785 36.952 160.925 37.344 161.131 37.624C161.355 37.904 161.653 38.1 162.027 38.212C162.419 38.3053 162.932 38.3613 163.567 38.38V39.5ZM171.762 34.936C171.762 35.7013 171.781 36.308 171.818 36.756C171.874 37.1853 171.977 37.5213 172.126 37.764C172.294 37.988 172.537 38.1373 172.854 38.212C173.19 38.2867 173.638 38.3427 174.198 38.38V39.5H165.378V38.38C165.92 38.3427 166.349 38.2867 166.666 38.212C167.002 38.1373 167.254 37.988 167.422 37.764C167.609 37.54 167.73 37.2227 167.786 36.812C167.842 36.4013 167.87 35.8413 167.87 35.132V31.632C167.87 30.5307 167.852 29.644 167.814 28.972C167.777 28.2813 167.73 27.8147 167.674 27.572C167.618 27.3293 167.544 27.1333 167.45 26.984C167.357 26.816 167.217 26.6947 167.03 26.62C166.844 26.5267 166.61 26.4707 166.33 26.452C166.05 26.4147 165.696 26.396 165.266 26.396V25.444L170.67 24.38L171.034 26.844H171.146C171.762 26.06 172.49 25.4533 173.33 25.024C174.17 24.5947 175.094 24.38 176.102 24.38C177.297 24.38 178.258 24.548 178.986 24.884C179.733 25.2013 180.396 25.7427 180.974 26.508C181.292 26.9373 181.572 27.4973 181.814 28.188C182.057 28.86 182.178 29.7933 182.178 30.988V34.936C182.178 35.7013 182.197 36.308 182.234 36.756C182.29 37.1853 182.393 37.5213 182.542 37.764C182.71 37.988 182.953 38.1373 183.27 38.212C183.588 38.2867 184.017 38.3427 184.558 38.38V39.5H175.794V38.38C176.354 38.3613 176.793 38.3147 177.11 38.24C177.446 38.1467 177.698 37.988 177.866 37.764C178.034 37.54 178.146 37.2227 178.202 36.812C178.258 36.3827 178.286 35.8227 178.286 35.132V31.324C178.286 30.372 178.23 29.5693 178.118 28.916C178.006 28.2627 177.82 27.74 177.558 27.348C177.316 26.9373 176.989 26.648 176.578 26.48C176.168 26.2933 175.654 26.2 175.038 26.2C174.441 26.2 173.928 26.368 173.498 26.704C173.069 27.04 172.696 27.5067 172.378 28.104C172.21 28.44 172.061 28.8787 171.93 29.42C171.818 29.9427 171.762 30.4933 171.762 31.072V34.936ZM201.682 34.992C201.682 35.7013 201.71 36.2707 201.766 36.7C201.822 37.1293 201.934 37.4653 202.102 37.708C202.289 37.9507 202.541 38.1187 202.858 38.212C203.175 38.3053 203.595 38.3613 204.118 38.38V39.5H195.858V38.38C196.269 38.3613 196.595 38.3053 196.838 38.212C197.099 38.1187 197.295 37.96 197.426 37.736C197.575 37.4933 197.669 37.176 197.706 36.784C197.762 36.3733 197.79 35.8413 197.79 35.188V19.396C197.323 18.9107 196.819 18.5373 196.278 18.276C195.755 18.0147 195.251 17.884 194.766 17.884C193.777 17.884 193.067 18.4533 192.638 19.592C192.489 20.0213 192.377 20.5067 192.302 21.048C192.227 21.5707 192.19 22.196 192.19 22.924V25.108H195.41V26.704H192.19V34.852C192.19 35.5427 192.218 36.112 192.274 36.56C192.349 37.008 192.47 37.372 192.638 37.652C192.825 37.9133 193.067 38.1 193.366 38.212C193.683 38.3053 194.075 38.3613 194.542 38.38V39.5H186.226V38.38C186.674 38.3613 187.038 38.3053 187.318 38.212C187.598 38.1187 187.803 37.96 187.934 37.736C188.083 37.512 188.177 37.1947 188.214 36.784C188.27 36.3547 188.298 35.7853 188.298 35.076V26.704H185.414V25.108H188.298V23.092C188.298 20.9453 188.923 19.2747 190.174 18.08C191.425 16.8667 193.161 16.26 195.382 16.26C196.147 16.26 196.903 16.3347 197.65 16.484C198.397 16.6147 198.966 16.7827 199.358 16.988L201.682 16.26V34.992ZM217.727 29.252C217.727 28.5053 217.708 27.9173 217.671 27.488C217.634 27.04 217.531 26.704 217.363 26.48C217.195 26.2373 216.943 26.0787 216.607 26.004C216.29 25.9107 215.851 25.836 215.291 25.78V24.66H221.619V33.144C221.619 34.2827 221.628 35.1787 221.647 35.832C221.684 36.4667 221.74 36.9427 221.815 37.26C221.871 37.5027 221.936 37.6987 222.011 37.848C222.086 37.9787 222.207 38.0907 222.375 38.184C222.543 38.2587 222.767 38.3147 223.047 38.352C223.346 38.3707 223.728 38.38 224.195 38.38V39.472L218.623 39.808L218.315 37.316H218.203C217.718 38.1 217.036 38.7067 216.159 39.136C215.282 39.5653 214.302 39.78 213.219 39.78C211.222 39.78 209.7 39.0707 208.655 37.652C207.852 36.5693 207.451 35.0293 207.451 33.032V29.252C207.451 28.4867 207.432 27.8893 207.395 27.46C207.358 27.012 207.255 26.676 207.087 26.452C206.938 26.228 206.704 26.0787 206.387 26.004C206.07 25.9107 205.631 25.836 205.071 25.78V24.66H211.343V32.584C211.343 34.4693 211.576 35.8413 212.043 36.7C212.51 37.54 213.256 37.96 214.283 37.96C215.384 37.96 216.234 37.456 216.831 36.448C217.428 35.4773 217.727 34.0493 217.727 32.164V29.252ZM239.679 36.896C237.98 38.8187 235.861 39.78 233.323 39.78C232.165 39.78 231.111 39.6027 230.159 39.248C229.225 38.8747 228.423 38.3613 227.751 37.708C227.079 37.036 226.556 36.2427 226.183 35.328C225.809 34.4133 225.623 33.396 225.623 32.276C225.623 31.1187 225.819 30.064 226.211 29.112C226.603 28.1413 227.153 27.3107 227.863 26.62C228.591 25.9107 229.44 25.36 230.411 24.968C231.4 24.576 232.483 24.38 233.659 24.38C235.637 24.38 237.177 24.912 238.279 25.976C239.38 27.04 239.931 28.5333 239.931 30.456C239.931 30.7547 239.884 30.9413 239.791 31.016C239.697 31.072 239.436 31.1 239.007 31.1H229.991C229.916 31.268 229.879 31.576 229.879 32.024C229.879 33.8533 230.271 35.3 231.055 36.364C231.857 37.428 232.94 37.96 234.303 37.96C235.087 37.96 235.861 37.7827 236.627 37.428C237.411 37.0733 238.167 36.5693 238.895 35.916L239.679 36.896ZM234.247 29.532C234.993 29.532 235.469 29.4947 235.675 29.42C235.899 29.3267 236.011 29.1213 236.011 28.804C236.011 27.9827 235.777 27.3107 235.311 26.788C234.844 26.2653 234.256 26.004 233.547 26.004C232.744 26.004 232.025 26.34 231.391 27.012C230.775 27.6653 230.373 28.5053 230.187 29.532H234.247ZM248.133 34.936C248.133 35.7013 248.152 36.308 248.19 36.756C248.246 37.1853 248.348 37.5213 248.498 37.764C248.666 37.988 248.908 38.1373 249.226 38.212C249.562 38.2867 250.01 38.3427 250.57 38.38V39.5H241.75V38.38C242.291 38.3427 242.72 38.2867 243.038 38.212C243.374 38.1373 243.626 37.988 243.794 37.764C243.98 37.54 244.102 37.2227 244.158 36.812C244.214 36.4013 244.242 35.8413 244.242 35.132V31.632C244.242 30.5307 244.223 29.644 244.186 28.972C244.148 28.2813 244.102 27.8147 244.046 27.572C243.99 27.3293 243.915 27.1333 243.822 26.984C243.728 26.816 243.588 26.6947 243.402 26.62C243.215 26.5267 242.982 26.4707 242.702 26.452C242.422 26.4147 242.067 26.396 241.638 26.396V25.444L247.042 24.38L247.406 26.844H247.518C248.134 26.06 248.862 25.4533 249.702 25.024C250.542 24.5947 251.466 24.38 252.474 24.38C253.668 24.38 254.63 24.548 255.358 24.884C256.104 25.2013 256.767 25.7427 257.346 26.508C257.663 26.9373 257.943 27.4973 258.186 28.188C258.428 28.86 258.55 29.7933 258.55 30.988V34.936C258.55 35.7013 258.568 36.308 258.606 36.756C258.662 37.1853 258.764 37.5213 258.914 37.764C259.082 37.988 259.324 38.1373 259.642 38.212C259.959 38.2867 260.388 38.3427 260.93 38.38V39.5H252.166V38.38C252.726 38.3613 253.164 38.3147 253.482 38.24C253.818 38.1467 254.07 37.988 254.238 37.764C254.406 37.54 254.518 37.2227 254.574 36.812C254.63 36.3827 254.658 35.8227 254.658 35.132V31.324C254.658 30.372 254.602 29.5693 254.49 28.916C254.378 28.2627 254.191 27.74 253.93 27.348C253.687 26.9373 253.36 26.648 252.95 26.48C252.539 26.2933 252.026 26.2 251.41 26.2C250.812 26.2 250.299 26.368 249.87 26.704C249.44 27.04 249.067 27.5067 248.75 28.104C248.582 28.44 248.432 28.8787 248.302 29.42C248.19 29.9427 248.133 30.4933 248.133 31.072V34.936ZM276.065 37.176C275.356 37.96 274.469 38.5667 273.405 38.996C272.36 39.4253 271.221 39.64 269.989 39.64C268.851 39.64 267.815 39.4627 266.881 39.108C265.948 38.7347 265.145 38.2213 264.473 37.568C263.801 36.9147 263.279 36.1307 262.905 35.216C262.551 34.2827 262.373 33.256 262.373 32.136C262.373 30.9787 262.569 29.924 262.961 28.972C263.353 28.02 263.904 27.208 264.613 26.536C265.323 25.8453 266.172 25.3133 267.161 24.94C268.151 24.5667 269.243 24.38 270.437 24.38C271.277 24.38 272.052 24.464 272.761 24.632C273.489 24.8 274.105 25.0333 274.609 25.332C275.132 25.6307 275.543 25.9853 275.841 26.396C276.14 26.788 276.289 27.2173 276.289 27.684C276.289 28.2253 276.131 28.6547 275.813 28.972C275.515 29.2893 275.104 29.448 274.581 29.448C274.152 29.448 273.769 29.336 273.433 29.112C273.116 28.888 272.799 28.524 272.481 28.02C272.201 27.572 271.959 27.2173 271.753 26.956C271.567 26.6947 271.389 26.4987 271.221 26.368C271.053 26.2187 270.885 26.1253 270.717 26.088C270.549 26.032 270.344 26.004 270.101 26.004C269.019 26.004 268.179 26.508 267.581 27.516C266.984 28.524 266.685 29.9333 266.685 31.744C266.685 33.6853 267.04 35.1787 267.749 36.224C268.477 37.2693 269.513 37.792 270.857 37.792C271.623 37.792 272.388 37.652 273.153 37.372C273.919 37.0733 274.647 36.6533 275.337 36.112L276.065 37.176ZM292.206 36.896C290.507 38.8187 288.389 39.78 285.85 39.78C284.693 39.78 283.638 39.6027 282.686 39.248C281.753 38.8747 280.95 38.3613 280.278 37.708C279.606 37.036 279.083 36.2427 278.71 35.328C278.337 34.4133 278.15 33.396 278.15 32.276C278.15 31.1187 278.346 30.064 278.738 29.112C279.13 28.1413 279.681 27.3107 280.39 26.62C281.118 25.9107 281.967 25.36 282.938 24.968C283.927 24.576 285.01 24.38 286.186 24.38C288.165 24.38 289.705 24.912 290.806 25.976C291.907 27.04 292.458 28.5333 292.458 30.456C292.458 30.7547 292.411 30.9413 292.318 31.016C292.225 31.072 291.963 31.1 291.534 31.1H282.518C282.443 31.268 282.406 31.576 282.406 32.024C282.406 33.8533 282.798 35.3 283.582 36.364C284.385 37.428 285.467 37.96 286.83 37.96C287.614 37.96 288.389 37.7827 289.154 37.428C289.938 37.0733 290.694 36.5693 291.422 35.916L292.206 36.896ZM286.774 29.532C287.521 29.532 287.997 29.4947 288.202 29.42C288.426 29.3267 288.538 29.1213 288.538 28.804C288.538 27.9827 288.305 27.3107 287.838 26.788C287.371 26.2653 286.783 26.004 286.074 26.004C285.271 26.004 284.553 26.34 283.918 27.012C283.302 27.6653 282.901 28.5053 282.714 29.532H286.774ZM300.689 35.16C300.689 35.888 300.717 36.4667 300.773 36.896C300.848 37.3067 300.988 37.624 301.193 37.848C301.398 38.072 301.697 38.2213 302.089 38.296C302.481 38.352 303.004 38.38 303.657 38.38V39.5H294.305V38.38C294.865 38.3427 295.313 38.2867 295.649 38.212C295.985 38.1373 296.237 37.988 296.405 37.764C296.573 37.54 296.676 37.2227 296.713 36.812C296.769 36.3827 296.797 35.8133 296.797 35.104V31.688C296.797 30.5307 296.769 29.6067 296.713 28.916C296.657 28.2253 296.536 27.6933 296.349 27.32C296.162 26.9467 295.892 26.704 295.537 26.592C295.201 26.4613 294.753 26.396 294.193 26.396V25.416L299.793 24.38L300.241 27.6H300.353C300.857 26.6107 301.52 25.8267 302.341 25.248C303.162 24.6693 304.03 24.38 304.945 24.38C305.654 24.38 306.233 24.5573 306.681 24.912C307.129 25.2667 307.353 25.7147 307.353 26.256C307.353 26.8533 307.176 27.3573 306.821 27.768C306.485 28.1787 306.018 28.384 305.421 28.384C305.141 28.384 304.889 28.328 304.665 28.216C304.441 28.104 304.236 27.9827 304.049 27.852C303.881 27.7027 303.704 27.572 303.517 27.46C303.349 27.3293 303.172 27.264 302.985 27.264C302.63 27.264 302.294 27.4973 301.977 27.964C301.66 28.4307 301.398 29.056 301.193 29.84C301.044 30.4 300.922 31.0347 300.829 31.744C300.736 32.4347 300.689 33.1253 300.689 33.816V35.16ZM327.262 32.976H319.338C318.461 34.9547 318.022 36.3267 318.022 37.092C318.022 37.652 318.228 38.0067 318.638 38.156C319.068 38.3053 319.702 38.38 320.542 38.38V39.5H312.87V38.38C313.318 38.324 313.701 38.2493 314.018 38.156C314.354 38.0627 314.644 37.932 314.886 37.764C315.148 37.596 315.372 37.3813 315.558 37.12C315.745 36.84 315.922 36.504 316.09 36.112L323.454 17.66H325.526L332.218 34.012C332.61 34.964 332.937 35.7107 333.198 36.252C333.478 36.7933 333.768 37.2133 334.066 37.512C334.384 37.792 334.738 37.988 335.13 38.1C335.541 38.212 336.064 38.296 336.698 38.352V39.5H326.114V38.352C327.01 38.3147 327.654 38.2213 328.046 38.072C328.438 37.9227 328.634 37.624 328.634 37.176C328.634 36.9147 328.569 36.5787 328.438 36.168C328.308 35.7573 328.13 35.2533 327.906 34.656L327.262 32.976ZM319.982 31.296H326.646L323.426 22.812H323.314L319.982 31.296ZM343.217 39.78H341.117L337.281 28.272C336.982 27.376 336.637 26.7507 336.245 26.396C335.853 26.0227 335.33 25.8173 334.677 25.78V24.66H342.685V25.78C342.013 25.7987 341.546 25.9013 341.285 26.088C341.024 26.256 340.893 26.5547 340.893 26.984C340.893 27.1893 340.921 27.4133 340.977 27.656C341.033 27.8987 341.108 28.1787 341.201 28.496L342.965 35.048H343.077L346.997 24.66H349.293L352.233 35.048H352.373L354.613 29.252C354.8 28.7853 354.93 28.384 355.005 28.048C355.08 27.6933 355.117 27.3853 355.117 27.124C355.117 26.6387 354.958 26.2933 354.641 26.088C354.324 25.8827 353.894 25.78 353.353 25.78V24.66H359.373V25.78C359.037 25.78 358.757 25.8173 358.533 25.892C358.309 25.9667 358.085 26.144 357.861 26.424C357.637 26.704 357.394 27.1333 357.133 27.712C356.872 28.2907 356.545 29.084 356.153 30.092L352.289 39.78H350.077L347.109 29.84H346.997L343.217 39.78ZM368.695 31.52C367.127 32.2293 365.941 32.892 365.139 33.508C364.355 34.1053 363.963 34.7307 363.963 35.384C363.963 35.9253 364.112 36.3547 364.411 36.672C364.709 36.9893 365.083 37.148 365.531 37.148C365.979 37.148 366.399 37.0733 366.791 36.924C367.183 36.756 367.519 36.5413 367.799 36.28C368.079 36.0187 368.293 35.7107 368.443 35.356C368.611 34.9827 368.695 34.5907 368.695 34.18V31.52ZM368.695 30.036V28.86C368.695 27.7773 368.499 26.9933 368.107 26.508C367.733 26.004 367.145 25.752 366.343 25.752C365.801 25.752 365.391 25.9013 365.111 26.2C364.831 26.48 364.569 26.956 364.327 27.628C364.159 28.0947 363.916 28.4587 363.599 28.72C363.3 28.9813 362.88 29.112 362.339 29.112C361.816 29.112 361.415 28.9533 361.135 28.636C360.855 28.3187 360.715 27.8707 360.715 27.292C360.715 26.396 361.2 25.6867 362.171 25.164C363.16 24.6413 364.644 24.38 366.623 24.38C368.713 24.38 370.207 24.7627 371.103 25.528C371.999 26.2747 372.447 27.5347 372.447 29.308V35.44C372.447 37.0267 372.764 37.82 373.399 37.82C373.753 37.82 374.08 37.6987 374.379 37.456L374.799 38.268C374.537 38.7347 374.127 39.108 373.567 39.388C373.025 39.6493 372.409 39.78 371.719 39.78C370.86 39.78 370.207 39.5187 369.759 38.996C369.311 38.4733 369.087 37.736 369.087 36.784H368.947C368.405 37.7547 367.705 38.492 366.847 38.996C365.988 39.5 365.008 39.752 363.907 39.752C362.731 39.752 361.788 39.4253 361.079 38.772C360.369 38.1 360.015 37.232 360.015 36.168C360.015 35.3467 360.379 34.5813 361.107 33.872C361.835 33.144 363.048 32.4347 364.747 31.744L368.695 30.036ZM382.365 35.16C382.365 35.888 382.393 36.4667 382.449 36.896C382.523 37.3067 382.663 37.624 382.869 37.848C383.074 38.072 383.373 38.2213 383.765 38.296C384.157 38.352 384.679 38.38 385.333 38.38V39.5H375.981V38.38C376.541 38.3427 376.989 38.2867 377.325 38.212C377.661 38.1373 377.913 37.988 378.081 37.764C378.249 37.54 378.351 37.2227 378.389 36.812C378.445 36.3827 378.473 35.8133 378.473 35.104V31.688C378.473 30.5307 378.445 29.6067 378.389 28.916C378.333 28.2253 378.211 27.6933 378.025 27.32C377.838 26.9467 377.567 26.704 377.213 26.592C376.877 26.4613 376.429 26.396 375.869 26.396V25.416L381.469 24.38L381.917 27.6H382.029C382.533 26.6107 383.195 25.8267 384.017 25.248C384.838 24.6693 385.706 24.38 386.621 24.38C387.33 24.38 387.909 24.5573 388.357 24.912C388.805 25.2667 389.029 25.7147 389.029 26.256C389.029 26.8533 388.851 27.3573 388.497 27.768C388.161 28.1787 387.694 28.384 387.097 28.384C386.817 28.384 386.565 28.328 386.341 28.216C386.117 28.104 385.911 27.9827 385.725 27.852C385.557 27.7027 385.379 27.572 385.193 27.46C385.025 27.3293 384.847 27.264 384.661 27.264C384.306 27.264 383.97 27.4973 383.653 27.964C383.335 28.4307 383.074 29.056 382.869 29.84C382.719 30.4 382.598 31.0347 382.505 31.744C382.411 32.4347 382.365 33.1253 382.365 33.816V35.16ZM402.417 37.708H402.305C401.017 39.0893 399.347 39.78 397.293 39.78C396.229 39.78 395.249 39.5933 394.353 39.22C393.476 38.8467 392.711 38.324 392.057 37.652C391.423 36.98 390.928 36.1867 390.573 35.272C390.219 34.3387 390.041 33.312 390.041 32.192C390.041 31.072 390.219 30.036 390.573 29.084C390.947 28.132 391.441 27.3107 392.057 26.62C392.692 25.9107 393.439 25.36 394.297 24.968C395.175 24.576 396.117 24.38 397.125 24.38C398.059 24.38 398.88 24.52 399.589 24.8C400.317 25.08 400.952 25.556 401.493 26.228H401.605V23.848C401.605 22.7467 401.587 21.804 401.549 21.02C401.531 20.2173 401.493 19.6947 401.437 19.452C401.344 19.06 401.055 18.78 400.569 18.612C400.103 18.4253 399.375 18.332 398.385 18.332V17.38L405.469 16.26V32.276C405.469 33.676 405.479 34.7587 405.497 35.524C405.535 36.2707 405.591 36.84 405.665 37.232C405.703 37.4747 405.759 37.6707 405.833 37.82C405.908 37.9693 406.02 38.0907 406.169 38.184C406.319 38.2587 406.515 38.3147 406.757 38.352C407.019 38.3707 407.345 38.38 407.737 38.38V39.472L402.417 39.78V37.708ZM401.549 31.464C401.549 30.7547 401.475 30.1013 401.325 29.504C401.176 28.888 400.952 28.3467 400.653 27.88C400.317 27.3387 399.888 26.928 399.365 26.648C398.843 26.368 398.283 26.228 397.685 26.228C396.584 26.228 395.744 26.732 395.165 27.74C394.587 28.748 394.297 30.2133 394.297 32.136C394.297 34.0773 394.587 35.5707 395.165 36.616C395.744 37.6613 396.575 38.184 397.657 38.184C398.273 38.184 398.861 38.0253 399.421 37.708C399.981 37.3907 400.439 36.9613 400.793 36.42C401.055 36.0093 401.241 35.5053 401.353 34.908C401.484 34.292 401.549 33.508 401.549 32.556V31.464ZM410.771 39.5H409.903V34.404H411.079C411.396 35.748 411.853 36.728 412.451 37.344C413.048 37.96 413.823 38.268 414.775 38.268C415.465 38.268 415.997 38.128 416.371 37.848C416.763 37.5493 416.959 37.148 416.959 36.644C416.959 36.1213 416.725 35.6173 416.259 35.132C415.792 34.628 415.036 34.096 413.991 33.536C412.572 32.7707 411.555 32.0147 410.939 31.268C410.323 30.5027 410.015 29.644 410.015 28.692C410.015 28.076 410.127 27.5067 410.351 26.984C410.593 26.4427 410.911 25.976 411.303 25.584C411.713 25.192 412.199 24.8933 412.759 24.688C413.319 24.464 413.925 24.352 414.579 24.352C415.157 24.352 415.727 24.436 416.287 24.604C416.865 24.772 417.369 25.0053 417.799 25.304L418.303 24.632H419.031V28.86H417.939C417.509 27.796 417.061 27.0307 416.595 26.564C416.147 26.0973 415.596 25.864 414.943 25.864C414.42 25.864 414 26.004 413.683 26.284C413.384 26.564 413.235 26.9373 413.235 27.404C413.235 27.9267 413.459 28.4213 413.907 28.888C414.373 29.3547 415.139 29.868 416.203 30.428C416.949 30.8387 417.593 31.24 418.135 31.632C418.676 32.024 419.115 32.4253 419.451 32.836C419.787 33.228 420.029 33.648 420.179 34.096C420.347 34.5253 420.431 34.992 420.431 35.496C420.431 36.1493 420.309 36.7373 420.067 37.26C419.824 37.7827 419.479 38.2307 419.031 38.604C418.583 38.9773 418.041 39.2667 417.407 39.472C416.791 39.6773 416.1 39.78 415.335 39.78C414.532 39.78 413.785 39.6773 413.095 39.472C412.404 39.248 411.835 38.9307 411.387 38.52L410.771 39.5Z" fill="black"/>
<defs>
<linearGradient id="paint0_linear_311_2140" x1="49" y1="3" x2="16" y2="59" gradientUnits="userSpaceOnUse">
<stop stop-color="#F06A9B"/>
<stop offset="0.5" stop-color="#D082EA"/>
<stop offset="1" stop-color="#2F7ED9"/>
</linearGradient>
<clipPath id="clip0_311_2140">
<rect width="60" height="60" fill="white" transform="translate(0.5)"/>
</clipPath>
</defs>
</svg>
